<svg xmlns="http://www.w3.org/2000/svg" width="64" height="51" x="0" y="0" viewBox="0 0 64 51">
  <path d="M19.4443 48.0225c3.55556.380556 8.65556.584722 12.4736.588889 3.8361.002778 8.9556-.194445 12.5264-.5722223M13.8889 2.9541C8.73611 3.892989 4.04306 5.22216 0 6.85827V43.0958c4.04306 1.6416 8.73611 2.9777 13.8889 3.925M44.4443 1.977588c-3.5556-.380556-8.6556-.5847224-12.4736-.58888906-3.83612-.00277778-8.95557.19444406-12.5264.57222206M50 47.04601c5.15278-.9389 9.84583-2.2681 13.8889-3.9042V6.90432C59.84583 5.26265 55.15278 3.926543 50 2.98071M19.4443 34.481c3.56111.154167 8.66944.2375 12.4875.241667 3.8319.002777 8.9458-.075 12.5125-.2250003"/>
  <path d="M13.8889 15.8955c-5.17362.375-9.87501.906944-13.8889 1.5625v15.0333c4.01667.6625 8.71667 1.2028 13.8903 1.5848m30.554-18.556174c-3.5597-.1555558-8.6639-.23888916-12.4875-.24166694-3.82639-.00416667-8.94306.07361114-12.5125.22361094M50.0013889 34.1024c5.1513911-.375 9.8444411-.9056 13.8875111-1.5611V17.50933C59.84583 16.846833 55.15278 16.307944 50 15.926"/>
  <path d="M13.8889 49.99975586h5.55556v-50H13.8889v50zm30.5554 0h5.55556v-50H44.4443v50z"/>
</svg>
