<svg xmlns="http://www.w3.org/2000/svg" viewBox="0 0 58 60">
  	<path d="M50.86953 28.69563c0 12.2465-9.9274 22.1739-22.1739 22.1739-12.24651 0-22.1739-9.9274-22.1739-22.1739 0-12.24651 9.92739-22.1739 22.1739-22.1739 12.2465 0 22.1739 9.92739 22.1739 22.1739z"/>
  	<path d="M57.39 28.695c0 15.8475-12.8475 28.695-28.695 28.695S0 44.5425 0 28.695 12.8475 0 28.695 0 57.39 12.8475 57.39 28.695zM19.5652 7.82617v41.7391m18.261-41.7391v41.7391M28.6956 0v6.52174m22.174 22.17386h6.52174m-52.17395 0H0m28.6956 22.174v6.52174M49.56514 10.4348l-3.91304 3.91304M7.82617 10.4348l3.91304 3.91304m-1.30441 35.2173l3.91304-3.91304m32.6087 3.91304L43.0435 45.6521"/>
  	<path d="M32.60879 39.13034c0 2.16131-1.75174 3.91305-3.91305 3.91305-2.1613 0-3.91304-1.75174-3.91304-3.91305 0-2.1613 1.75174-3.91304 3.91304-3.91304 2.16131 0 3.91305 1.75174 3.91305 3.91304zm-18.26085 14.3479L9.13053 60H1.30444l5.21739-13.0435m36.52167 6.52174L48.26089 60H56.087l-5.21741-13.0435"/>
</svg>