<svg xmlns="http://www.w3.org/2000/svg" width="54" height="60" viewBox="0 0 54 60">
  <path d="M19.0908 27.2727v20.4545m6.8184-20.4545v20.4545m6.8181-20.4545v20.4545m.87692-43.30728c-1.360911 1.20955-1.812275 2.30727-2.15182 3.73773M6.81812 9.54541c1.53682 0 2.955.508636 4.095 1.36636"/>
  <path d="M8.18185484 42.2727v9.5455l-1.84772 3.6968c-.52499 1.0486-.31908 2.3182.51136 3.1486L8.18185484 60h32.72701l1.3363-1.3364c.8305-.8304 1.0364-2.1.5114-3.1486l-1.8477-3.6968v-2.7273h2.7272c.7855 0 1.5382-.3123 2.0946-.8673l4.6554-4.6554c1.7904-1.7905 2.7954-4.2191 2.7954-6.75v-9.5455c0-2.2595-1.8313-4.0909-4.0909-4.0909h-8.1817v-5.4545c2.7272-1.2505 4.7154-6.9982 2.7272-10.90911-1.1209-2.20637-4.9431-4.77273-9.9817-2.38637-1.5-1.86954-3.7991-3.06818-6.3818-3.06818-2.1395 0-4.0827.82773-5.5404 2.17364-1.4741-2.13273-3.9313-3.53318476-6.7199-3.53727566-2.2827-.00272728-8.9604 1.27909566-8.19404 9.54545566-3.93542.59314-6.81676 4.08134-6.81676 8.18184 0 3.0272 1.36226 5.67 4.08951 7.0854v13.3691c0 2.2596 1.83135 4.0909 4.09088 4.0909 2.25951 0 4.09091-1.8313 4.09091-4.0909V24.5455c0-3.765 3.0531-6.8182 6.8181-6.8182h21.818M38.1819 54.5454H10.9092"/>
  <path d="M40.9092 28.6365v15h1.36364l4.65545-4.6555c.51136-.51132.79909-1.20541.79909-1.9295v-7.05136c0-.752731-.61091-1.36364-1.36363-1.36364H40.9092z"/>
</svg>