<svg xmlns="http://www.w3.org/2000/svg" width="39" height="142" viewBox="0 0 39 142">
  <path d="M34.3377831 60.057491l-3.512718-6.587163c-.327987-.615087-.532422-1.28601-.602712-1.976436l-4.312638-42.4983537h-.090882c.387486 0 .645183-.3919608.484902-.7371639l-.901494-1.9425087c-.098802-.2119887-.04158-.4624092.139887-.6132357.377388-.3144636.15048-.9187299-.345015-.9187299h1.55826l-.725274-2.9947698c-.15345-.63277137-.73062-1.0791693-1.394415-1.0791693h-11.277981c-.660924 0-1.234827.44447634-1.387188 1.0737243l-.726957 3.0002148h1.489554c-.488268 0-.719136.5892183-.356202.9088101l.085734.0758934c.173943.1533807.225324.3996432.126522.607464l-.891792 1.8778221c-.164142.3458466.093555.7416486.482724.7416486L8.2454718 51.891278c-.069003.672507-.2701116 1.325808-.592218 1.923669L3.721251 61.118078C1.2519831 65.703362-.0380859 70.809089-.0380859 75.992927v56.735514c0 4.72824 3.9143412 8.56152 8.7430068 8.56152h20.4481332c4.90644 0 8.88426-3.89466 8.88426-8.70012V74.821559c0-5.141268-1.26918-10.206603-3.699531-14.764068"/>
</svg>
