<svg xmlns="http://www.w3.org/2000/svg" viewBox="0 0 160 160">
  <path d="M111.4232 34.16402c-1.018-.69972-1.90347-.54652-2.65037.45751-.82759 1.11583-1.62621 2.28548-2.40828 3.51097-.39931.6397-.54413 1.1966-.44482 1.6707.09931.472.40344.8839.91241 1.2338.52345.3581 1.02414.5341 1.50414.53.47793-.0062.90207-.2774 1.27034-.8136l-.97034-.6666c-.15104-.1014-.24414-.2484-.27724-.4327-.03518-.1863 0-.356.10138-.5051l1.57238-2.29375c.1035-.15112.2483-.24428.4345-.27947s.3538 0 .5048.10351l5.6773 3.89611c.1531.1035.2462.2484.2793.4347.0352.1863 0 .354-.1055.5072l-1.8393 2.685c-.6435.9357-1.378 1.6334-2.2118 2.095-.8317.4617-1.7255.7184-2.6834.7701-.95587.0518-1.94897-.0973-2.98139-.4513-1.03241-.354-2.07103-.8922-3.11793-1.6085s-1.90759-1.4843-2.58621-2.2917c-.68069-.8115-1.156547-1.6561-1.435858-2.5359-.27724116-.8778-.3413791-1.7866-.1924136-2.72854.1468966-.93986.5337936-1.90663 1.1524116-2.89824.36-.58379.76552-1.20692 1.22069-1.86523.45104-.66246.8938-1.27937 1.32828-1.85281.66414-.87982 1.40276-1.54642 2.21793-1.997718.81724-.453369 1.68414-.6997195 2.60069-.73905283.91862-.03726317 1.8724.11799983 2.8676.46578983.9952.349859 2.0027.873611 3.0207 1.571261 1.0862.74734 1.982 1.54435 2.6876 2.39105.7034.84878 1.2144 1.68927 1.5331 2.52562.3144.83635.4531 1.64786.4076 2.4366-.0456.78877-.2752 1.49877-.6849 2.12817-.0848.1221-.2007.1987-.3538.2256-.151.029-.2855 0-.4117-.0849l-4.5621-3.13007c-.2751-.18838-.422-.40161-.4427-.63761-.0042-.08281-.0062-.19046-.0062-.32295 0-.13249-.029-.28361-.0849-.45337-.0537-.16975-.1469-.34572-.2772-.52375-.1303-.18011-.3165-.35607-.5648-.52583"/>
  <path fill-rule="evenodd" d="M128.8598 62.0458c.6683-.3768 1.3055-.7577 1.9159-1.1407.9331-.5859 1.6676-1.2711 2.2014-2.0515.5358-.7826.8793-1.6355 1.0303-2.5546.151-.92127.1097-1.89425-.1262-2.92105-.2359-1.02681-.6538-2.07225-1.2538-3.13218-.6083-1.07649-1.289-1.97495-2.0421-2.69951-.7551-.72456-1.5662-1.258665-2.431-1.602315-.8648-.3457188-1.771-.4885609-2.7165-.4326662-.94556.0558947-1.91177.3332982-2.8966.8322102-.63931.322951-1.29517.674881-1.96345 1.053721-.6662.37677-1.29103.7494-1.87034 1.11375-.94759.59621-1.68828 1.28351-2.21586 2.05983-.527588.77838-.860692 1.62509-.9951744 2.53596-.1365518.91295-.08275866 1.87351.1634484 2.88585.246207 1.0123.672414 2.0536 1.280686 3.1301.6 1.062 1.27035 1.9604 2.01518 2.7016.74482.739 1.54344 1.2855 2.39379 1.6375.85034.354 1.74621.503 2.68552.4533.93724-.0538 1.9076-.3312 2.9048-.8384.6104-.3084 1.2517-.6521 1.92-1.0309zm-7.89308-6.71154c.12414-.44509.48207-.85291 1.07586-1.22761 1.21035-.74113 2.43104-1.43256 3.66002-2.07018.6248-.31674 1.1627-.40989 1.6117-.27947.4469.13042.8028.42852 1.0655.89224.2628.46579.3352.9233.2152 1.3746-.1179.4513-.4738.86326-1.0697 1.23796-1.1793.7266-2.39996 1.416-3.65996 2.0723-.6269.3146-1.16276.4119-1.60345.2898-.44276-.1242-.80069-.4244-1.07172-.9047-.27104-.4803-.34552-.9399-.22345-1.38494z"/>
  <path d="M128.1907 82.2804c.01655.1821-.03725.3457-.15518.4927-.12207.1449-.2731.2256-.45724.2422l-3.76345.3436c-.18207.0187-.34551-.0331-.49241-.1552-.14483-.1201-.22552-.2733-.24207-.4555l-1.15034427-12.57008c-.01655173-.18424.03517237-.34779.15724127-.4927.117931-.14491.273104-.22565.455173-.24221l16.10278-1.47603523c.182-.01449127.3476.03726313.4903.15733323.1449.12007.2255.271193.2421.455439l.4593 4.989123c.0166.1801-.0372.34572-.1572.49063-.12.14491-.2731.22565-.4552.24221l-11.66691 1.07028.63311 6.90821z"/>
  <path fill-rule="evenodd" d="M135.4871 102.1476c.6062-.8529 1.0965-1.8321 1.4751-2.9376l2.3214-6.82946c.0579-.17389.0455-.34572-.0372-.51547-.0828-.16976-.2131-.28362-.3849-.34158l-15.3103-5.210634c-.17379-.060035-.34344-.047614-.51517.035193-.16965.082807-.28138.213228-.34345.385053l-2.358618 6.947508q-.5834479 1.70789-.6641375 3.24189c-.0579311 1.0206.0662069 1.9625.3724135 2.8258.308276.8633.802762 1.6313 1.489652 2.3062.6869.6728 1.58483 1.2255 2.68966 1.6561.31034.1222.60827.2319.88965.3292.28552.0973.5669.1925.84414.2857.27517.0952.55862.1904.85242.2918.29172.0973.60827.1967.94551.294 1.0738.3126 2.08763.4016 3.04143.2691.9517-.1345 1.8206-.4616 2.6068-.9792.7842-.5175 1.4794-1.2027 2.0856-2.0536zm-4.0283-3.3951c-.4304.2857-.9848.3292-1.6593.1367-.33726-.0973-.64554-.1905-.92278-.2754-.27931-.0848-.55862-.1759-.83586-.2712-.2731-.0952-.55862-.1946-.84828-.3022-.28758-.1076-.59793-.2256-.92482-.354-.64966-.2567-1.0738-.6148-1.25794-1.0786-.18827-.45954-.19241-.95017-.01448-1.46979l.52345-1.54435 7.34481 2.50077-.4841 1.42427c-.1821.5362-.4883.9482-.9207 1.2338z"/>
  <path d="M109.85535 117.3487c-.1262.1346-.28344.2029-.47379.2071-.18621.0041-.34552-.0559-.48-.1822l-2.55724-2.4345c-.1344826-.1263-.20275848-.2837-.2068964-.4741-.0062069-.1884.0558621-.3478.1820694-.48236l8.989657-9.452422c.1262-.1345616.28345-.20287738.47172-.20701773.18828-.00414035.34966.05589473.48413.18217573l11.7145 11.152024c.1324.1263.2027.2836.2069.4741.0041.1884-.0559.3498-.1841.4823l-8.8511 9.3075c-.1241.1346-.2834.2029-.4717.2071-.1883.0041-.3476-.0559-.4841-.1822l-2.55522-2.4325c-.13448-.1283-.20276-.2857-.20689-.474-.00621-.1905.05793-.3499.18206-.4824l5.17655-5.4446-1.1441-1.0889-4.79589 5.045c-.12621.1325-.28345.2029-.46966.205-.19034.0062-.34965-.0538-.48621-.1801l-2.35655-2.2441c-.13241-.1263-.20069-.2857-.20482-.474-.00621-.1884.05379-.3499.18206-.4824l4.79587-5.04502-1.14414-1.08684-5.31311 5.58736zm-14.19406 20.9184c-.17172.0683-.34345.0641-.51724-.0083-.17379-.0766-.29586-.1988-.36207-.3685l-5.9793079-15.03363c-.0703448-.16975-.0662069-.34158.0082759-.51547.076552-.17389.198621-.29397.368276-.36228l3.676556-1.46362c.30827-.12421.56069-.14491.75724-.06003.19448.08488.33103.15733.40758.2153l6.2917 4.36807-2.32342-5.83997c-.06828-.17182-.06414-.34365.01034-.51547.07449-.17597.19863-.29604.36828-.36435l4.2083-1.6747731c.1717-.070386.3434-.0662456.5172.0103509.1717.0724562.2917.1966662.3621.3664212l5.9793 15.033651c.0662.1718.0621.3436-.0124.5154-.0745.1739-.1945.294-.3662.3623l-3.6745 1.4636c-.3104.1222-.5628.1429-.7572.058-.1966-.0828-.3311-.1553-.4097-.2132l-6.49449-4.8815 2.52829 6.3534c.0683.1718.0641.3436-.0104.5154-.0744.1739-.1965.294-.3682.3623l-4.20831 1.6769zm-18.70349-7.18634c-.06207.47821-.2131.91916-.4531 1.31663-.23586.39748-.53379.73284-.88759 1.00611-.35379.27326-.75724.472-1.20206.59828-.4469.12628-.91035.1594-1.39035.0973-.48-.06418-.91862-.2153-1.31586-.45337-.39724-.23807-.732416-.53618-1.005519-.89018-.271034-.35814-.471724-.75768-.6-1.20484-.1262069-.44509-.1572414-.90881-.0931035-1.38909.062069-.48028.2131035-.91915.4510345-1.31663.24-.39954.535858-.734911.891728-1.006104.35586-.273263.75517-.472 1.20207-.59828.44689-.12835108.91034-.1594037 1.38827-.0952283.48.0621053.91862.2132283 1.31586.4512983.39724.23807.73242.536174 1.00552.892244.2731.354.47379.75562.6 1.20277.12621.44509.15724.90881.0931 1.38909"/>
  <path fill-rule="evenodd" d="M60.826 118.60126q-.0372-.28258-.2607-.44715l-6.8565-5.1299c-1.8311-1.368385-3.4987-2.0577536-5.00073-2.06810452-1.50414-.01035088-2.82.74112252-3.94759 2.25235452-.25241.33536-.43862.68936-.56276 1.06614-.12414.3747-.19655.75354-.21103 1.13859-.01655.38506.01862.76183.10758 1.13032.08897.36849.22345.69972.39518.99782-.21931-.03933-.48207-.05382-.78207-.03933-.30414.01449-.61035.06625-.9269.15319-.31655.08695-.62897.22772-.94138.42232-.31034.19252-.58759.4513-.82759.77217-1.059306 1.416-1.404823 2.80712-1.034478 4.16522.370345 1.3622 1.514478 2.7616 3.440688 4.2024l6.65588 4.9767c.1469.1118.3124.1532.5007.1263.1882-.029.3351-.1138.4448-.2608l9.6848-12.95932c.1076-.14699.1511-.31467.1221-.49892zm-7.3097-.34158l-1.862-1.39529c-.3352-.24842-.6538-.32088-.9538-.21116-.3.10972-.5338.2774-.7055.50512-.18004.24014-.269.52169-.27107.84256 0 .32295.15107.60035.46137.83014l1.8621 1.3953 1.4689-1.96667zm-7.1503 4.34322c-.16138.2153-.25035.4699-.27518.7639-.02275.296.1138.5548.40552.7743l1.68414 1.2607 1.36345-1.828-1.68207-1.2586c-.29379-.2195-.57724-.2795-.85035-.1801-.26896.0973-.48827.2546-.64551.4678zM30.98817 95.98273c-.67862.354-1.33242.71214-1.95104 1.07235-.95379.55481-1.7131 1.21312-2.27379 1.97495-.564826.76596-.935171 1.60231-1.11724 2.51733-.184138.91502-.1737932 1.888.026896 2.92514.198621 1.0351.579311 2.093 1.142074 3.1715q.85655 1.6458 1.94896 2.7699c.72828.7494 1.52069 1.3125 2.3731 1.6851.85449.3747 1.75449.5486 2.70207.5279.94759-.0227 1.9221-.2691 2.9214-.7328.6496-.3002 1.3179-.6293 1.9986-.9854.6807-.354 1.3159-.7059 1.9097-1.0517.9662-.561 1.7296-1.2193 2.2841-1.9811.5545-.7577.9145-1.592 1.0841-2.4966.1676-.9089.1469-1.87148-.0662-2.89208-.211-1.01853-.602-2.07431-1.171-3.17151-.5628-1.08063-1.2041-2.00393-1.9221-2.76989q-1.0769-1.14584-2.3338-1.720318c-.8379-.380912-1.7296-.5610177-2.6689-.54445633-.93935.02070173-1.91797.26498233-2.93176.73905233-.62276.287752-1.27241.606562-1.95517.962632zm7.65723 6.98063c-.1386.43888-.511.83635-1.1172 1.18828-1.2352.69976-2.47658 1.34766-3.73038 1.94386-.63724.2961-1.17724.3706-1.62.2236-.44275-.147-.7862-.4554-1.03448-.9295-.24621-.4741-.30207-.9336-.16758-1.3808.13448-.44716.50482-.8467 1.11103-1.19863 1.20414-.6873 2.44965-1.33319 3.73031-1.94597.6352-.29189 1.1731-.37263 1.6138-.23393.4386.13871.7842.45337 1.0407.94193.2524.48856.3104.95228.1738 1.39116z"/>
  <path d="M20.00077485 75.420929c-.00827586-.182175.04965515-.345719.17793115-.484421.126207-.138702.283448-.213228.467586-.221509l4.024138-.1904557c.18414-.0103509.34345.0496842.48414.1759647.14069.126281.21517.283614.22345.46579l.19448 4.152772 11.4538-.54239c.1821-.00828.3455.05176.4841.17804.1387.12835.2131.28361.2214.46579l.2379 5.00361c.0083.18428-.0517.34568-.1779.48438-.1283.1408-.2814.2153-.4655.2236l-11.45173.5424.19655 4.1528c.00828.1842-.04966.3436-.17793.4844-.12621.1408-.28138.2153-.46552.2236l-4.02414.1904c-.18413.0083-.34344-.0496-.486203-.178-.138621-.1263-.213104-.2836-.22138-.4658l-.69517214-14.660971zM26.89858 51.480596c.06414-.171824.18414-.293965.35793-.3726312.17172-.0765965.34345-.082807.51517-.0144912l3.76138 1.4449864c.17174.06624.29584.18424.37244.35814.0765.17182.0827.34572.0165.51547l-1.4917 3.88158 10.7028 4.11345c.1717.0662.2938.1863.3724.3581.0765.1719.0827.3457.0145.5155l-1.7938 4.6765c-.0662.1719-.1862.2961-.358.3727-.1738.0766-.3455.0807-.5172.0165l-10.7007-4.1155-1.48965 3.8816c-.06414.1697-.18621.296-.35793.3726-.17173.0766-.34345.0828-.51518.0145l-3.761376-1.445c-.171724-.0662-.295862-.1842-.3724136-.3581-.0765518-.1718-.0827587-.3437-.0165518-.5155L26.89858 51.480596zM50.8593 41.82402c.1283-.13042.2856-.19874.4738-.20288.1883-.00207.3497.06004.4821.18839l2.7103 2.63533c.1325.12835.1987.28569.2007.47614.0042.18839-.06.34779-.1882.48028l-8.789 9.05492c-.1283.1325-.2855.1988-.4738.2008-.1903.0042-.3497-.0579-.4841-.1863L33.194509 43.19655c-.1324141-.12835-.19862102-.28569-.20275895-.47407-.00206897-.19046.05999995-.34986.18827595-.48235l3.490344-3.591759c.12621-.132491.28345-.19873657.47379-.20287692.18828-.00414035.34759.05796492.48207.18631592l8.39997 8.16891 4.8331-4.9767zm17.1823-8.19972c.1696-.0704.3413-.0704.5151 0 .1759.0704.3.1905.3704.3602l1.3758 3.2523c.0725.1697.0704.3415 0 .5175-.0703.1739-.1903.2981-.36.3685l-12.01237 5.0823c-.16965.0724-.33931.0724-.51517.0021-.17586-.0725-.29586-.1926-.36827-.3603l-6.2979341-14.90315c-.0724138-.16975-.0744827-.33951-.002069-.51547.0703451-.1739.1903451-.29811.3579311-.37056L62.9333 22.0541037c.1696-.0724561.3414-.0724561.5152-.0020702.1758.0703855.3.1925265.3703.3602105l1.3759 3.254316c.0703.16768.0724.33951 0 .51547-.0704.1739-.1924.29811-.36.37056l-6.91658 2.92516.61448 1.45327 6.4097-2.70986c.1696-.07246.3413-.07453.5151-.00207.1759.07245.3.19045.3704.36021l1.2662 2.99761c.0724.17183.0724.34158.0021.51759-.0704.1759-.1925.2981-.36.3705l-6.4097 2.7119.6145 1.4533 7.1007-3.0059zm13.4380672-5.1028c.0475862-.48235.1862068-.92537.4117238-1.33112.227586-.40368.513104-.7494.860689-1.033017.34552-.281544.74276-.492702 1.18345-.633474.44069-.1407719.90414-.1842456 1.38414-.1366316.48414.0496842.92482.1883856 1.33034.4140356.40345.225649.7469.511333 1.03242.859127.28344.34985.49241.74319.6331 1.18414.14069.44508.18621.90466.13655 1.38701-.04965.48235-.18828.92537-.41172 1.32906-.22552.40575-.51311.75147-.86069 1.03301-.34759.28362-.74276.49685-1.18345.63555-.44276.1387-.90621.18424-1.38621.13456-.48207-.04762-.92689-.18425-1.33034-.41197-.40345-.22565-.7469-.51133-1.032417-.85912-.283448-.34779-.492413-.74526-.633103-1.18621-.1386208-.44302-.184138-.90467-.1344828-1.38495"/>
</svg>
