<svg xmlns="http://www.w3.org/2000/svg" viewBox="0 0 160 160">
    <path d="M111.423 34.164c-1.018-.7-1.903-.547-2.65.458-.828 1.115-1.626 2.285-2.408 3.51-.4.64-.545 1.197-.445 1.67.1.473.403.885.912 1.235.524.358 1.024.534 1.504.53.478-.006.902-.277 1.27-.814l-.97-.666c-.15-.102-.244-.25-.277-.433-.04-.186 0-.356.1-.505l1.57-2.3c.1-.15.25-.25.43-.28.18-.04.35 0 .5.1l5.67 3.89c.15.1.24.25.28.43.03.18 0 .35-.11.5l-1.84 2.68c-.64.93-1.38 1.63-2.21 2.09-.83.46-1.73.72-2.68.77-.96.05-1.95-.1-2.99-.45-1.03-.36-2.07-.9-3.12-1.61-1.05-.72-1.91-1.49-2.59-2.29-.68-.82-1.16-1.66-1.44-2.54-.28-.88-.34-1.79-.19-2.73.15-.94.53-1.91 1.15-2.9.36-.59.76-1.21 1.22-1.87.45-.66.89-1.28 1.33-1.86.66-.88 1.4-1.543 2.21-1.995.82-.454 1.68-.7 2.6-.74.92-.037 1.87.12 2.87.466.99.35 2 .876 3.02 1.57 1.08.75 1.98 1.55 2.69 2.395.7.85 1.21 1.69 1.53 2.528.31.835.45 1.65.41 2.436-.05.787-.28 1.497-.69 2.126-.09.12-.2.2-.357.226-.15.026-.29 0-.416-.087l-4.56-3.13c-.274-.19-.42-.4-.44-.64-.008-.08-.01-.19-.01-.32s-.03-.28-.084-.45c-.052-.17-.146-.35-.276-.528-.13-.18-.32-.355-.566-.525"/>
    <path d="M128.86 62.046c.668-.377 1.305-.758 1.916-1.14.933-.587 1.667-1.272 2.2-2.052.537-.783.88-1.636 1.03-2.555.152-.93.11-1.9-.125-2.93-.23-1.03-.65-2.07-1.25-3.13-.61-1.08-1.29-1.98-2.04-2.7-.75-.73-1.56-1.26-2.43-1.6-.86-.35-1.77-.49-2.71-.44-.94.05-1.91.33-2.89.83-.64.32-1.29.67-1.96 1.05-.66.37-1.29.75-1.87 1.11-.94.6-1.69 1.28-2.21 2.06-.53.78-.86 1.62-.99 2.54-.14.91-.08 1.87.16 2.88.25 1.01.67 2.05 1.28 3.13.6 1.06 1.27 1.96 2.02 2.7.75.74 1.54 1.29 2.39 1.64.85.35 1.75.5 2.69.45.94-.06 1.91-.33 2.91-.84.61-.31 1.25-.65 1.92-1.03zm-7.893-6.712c.124-.445.482-.853 1.076-1.227 1.21-.74 2.43-1.433 3.66-2.07.624-.317 1.162-.41 1.61-.28.448.13.804.43 1.067.892.263.46.335.92.215 1.37-.118.45-.474.86-1.07 1.24-1.18.72-2.4 1.41-3.66 2.07-.627.31-1.162.41-1.603.29-.443-.13-.8-.43-1.072-.91-.27-.48-.345-.94-.223-1.39z"/>
    <path d="M128.19 82.28c.017.182-.037.346-.154.493-.123.145-.274.226-.458.242l-3.763.344c-.182.01-.346-.04-.493-.16-.144-.12-.225-.28-.242-.46l-1.15-12.57c-.017-.19.035-.35.157-.5.118-.15.273-.23.455-.24l16.103-1.48c.182-.02.348.03.49.16.145.12.226.27.243.45l.46 4.99c.015.18-.038.34-.158.49-.12.14-.273.22-.456.24l-11.666 1.07.633 6.91z"/>
    <path d="M135.487 102.148c.606-.853 1.097-1.832 1.475-2.938l2.322-6.83c.058-.173.045-.345-.038-.515-.082-.17-.213-.284-.385-.342l-15.31-5.21c-.17-.06-.34-.048-.51.035-.17.083-.28.213-.34.385l-2.36 6.948q-.58 1.71-.66 3.25c-.05 1.02.07 1.96.38 2.83.31.87.81 1.63 1.49 2.31.69.67 1.59 1.23 2.69 1.66.31.13.61.24.89.33l.85.29.86.29c.29.1.61.2.95.3 1.08.32 2.09.41 3.05.27.95-.13 1.82-.46 2.61-.98.78-.51 1.48-1.2 2.084-2.05zm-4.028-3.395c-.44.285-.99.33-1.66.136-.34-.1-.65-.19-.93-.28l-.84-.27c-.28-.1-.56-.2-.85-.31-.29-.11-.6-.23-.93-.36-.65-.26-1.08-.62-1.26-1.08-.19-.46-.2-.95-.02-1.47l.52-1.55 7.34 2.5-.49 1.42c-.18.53-.49.94-.92 1.23z"/>
    <path d="M109.855 117.35c-.126.133-.283.202-.473.206-.187.004-.346-.056-.48-.182l-2.558-2.435c-.134-.13-.202-.29-.207-.48-.006-.19.056-.35.182-.48l8.99-9.46c.12-.14.28-.21.47-.21.19-.01.35.05.48.18l11.71 11.15c.13.12.2.28.2.47 0 .19-.06.35-.19.48l-8.85 9.3c-.13.13-.29.2-.47.21-.19 0-.35-.06-.49-.19l-2.56-2.43c-.14-.13-.21-.29-.21-.48-.01-.19.06-.35.18-.49l5.17-5.444-1.15-1.09-4.8 5.044c-.12.13-.28.2-.47.206-.19.004-.35-.056-.48-.18l-2.357-2.246c-.13-.13-.2-.29-.203-.48-.01-.19.05-.35.18-.48l4.8-5.046-1.14-1.086-5.31 5.59z"/>
    <path d="M95.66 138.267c-.17.068-.342.064-.516-.008-.174-.08-.296-.2-.362-.37l-5.98-15.04c-.07-.17-.066-.34.01-.52.075-.18.198-.3.367-.36l3.67-1.47c.31-.13.56-.15.75-.06.19.08.33.16.41.21l6.29 4.37-2.33-5.84c-.07-.17-.07-.35.01-.52.07-.18.19-.3.36-.36l4.21-1.68c.17-.07.34-.07.51.01.17.07.29.19.36.36l5.98 15.03c.06.17.06.34-.02.51-.08.18-.2.3-.37.363l-3.68 1.462c-.31.12-.56.14-.757.05-.195-.086-.33-.16-.41-.216l-6.49-4.88 2.53 6.354c.066.17.06.342-.01.514-.077.17-.2.29-.37.36l-4.21 1.68z"/>
    <path d="M76.958 131.08c-.062.48-.213.92-.453 1.317-.236.398-.534.733-.888 1.007-.354.273-.757.472-1.202.598-.447.126-.91.16-1.39.097-.48-.07-.92-.22-1.316-.46-.4-.24-.74-.54-1.01-.89-.27-.36-.47-.76-.6-1.21-.13-.45-.16-.91-.1-1.39.06-.48.21-.92.45-1.32.24-.4.53-.74.89-1.01.35-.28.75-.48 1.2-.6.45-.13.91-.16 1.39-.1.48.06.92.21 1.31.45.39.24.73.53 1 .89.27.35.47.75.6 1.2.12.44.16.9.09 1.39"/>
    <path d="M60.826 118.6q-.037-.28-.26-.446l-6.857-5.13c-1.84-1.368-3.5-2.058-5.01-2.068-1.51-.01-2.82.74-3.95 2.252-.26.336-.44.69-.57 1.067-.13.374-.2.753-.21 1.138-.02.385.01.762.1 1.13.09.37.22.7.39.998-.22-.03-.49-.05-.79-.03-.31.02-.61.07-.93.16-.32.09-.63.23-.94.43-.31.19-.59.45-.83.77-1.06 1.42-1.41 2.81-1.04 4.17.37 1.36 1.51 2.76 3.44 4.2l6.65 4.98c.147.11.31.16.5.13s.335-.11.445-.26l9.7-12.97c.11-.14.15-.31.125-.5zm-7.31-.34l-1.862-1.396c-.335-.248-.654-.32-.954-.21-.3.11-.533.277-.705.504-.18.24-.27.522-.27.843 0 .33.15.6.46.83l1.862 1.4 1.47-1.96zm-7.15 4.343c-.16.215-.25.47-.275.764-.02.296.12.555.41.774l1.69 1.27 1.37-1.83-1.68-1.26c-.29-.22-.57-.28-.85-.18-.27.1-.49.26-.64.47z"/>
    <path d="M30.988 95.983c-.678.354-1.332.712-1.95 1.072-.955.555-1.714 1.213-2.275 1.975-.564.766-.935 1.602-1.117 2.517-.184.915-.174 1.888.027 2.926.2 1.035.58 2.093 1.142 3.17q.857 1.647 1.95 2.77c.727.75 1.52 1.313 2.372 1.686.855.37 1.755.54 2.702.52.94-.03 1.92-.27 2.92-.74.65-.3 1.32-.63 2-.99.68-.36 1.31-.71 1.91-1.06.96-.56 1.73-1.22 2.28-1.98.55-.76.91-1.6 1.08-2.5.17-.91.14-1.87-.07-2.89-.21-1.02-.6-2.08-1.17-3.17-.57-1.08-1.21-2.01-1.93-2.77q-1.08-1.15-2.34-1.72c-.84-.38-1.73-.57-2.67-.55-.94.02-1.92.26-2.93.74-.63.28-1.28.6-1.96.96zm7.657 6.98c-.138.44-.51.837-1.117 1.19-1.235.698-2.476 1.346-3.73 1.943-.637.296-1.177.37-1.62.223-.443-.15-.786-.46-1.035-.93-.246-.48-.302-.94-.167-1.38.134-.45.505-.85 1.11-1.2 1.205-.69 2.45-1.34 3.73-1.95.636-.29 1.174-.37 1.615-.24.44.14.79.45 1.05.94.25.49.31.95.18 1.39z"/>
    <path d="M20 75.42c-.008-.18.05-.345.18-.483.125-.14.282-.214.466-.222l4.024-.19c.185-.01.344.05.485.176.14.13.215.29.223.47l.194 4.16 11.454-.54c.182-.01.346.05.484.18.14.13.214.28.222.47l.238 5.01c.008.19-.052.35-.178.49-.128.14-.282.22-.466.23l-11.45.55.195 4.15c.01.19-.05.35-.17.49-.12.14-.28.21-.46.22l-4.02.19c-.18.01-.34-.05-.48-.18-.14-.124-.21-.28-.22-.463l-.7-14.66z"/>
    <path d="M26.9 51.48c.063-.17.183-.293.357-.372.17-.077.343-.083.515-.015l3.76 1.445c.173.067.297.185.373.36.077.17.083.344.017.514l-1.492 3.882 10.703 4.113c.172.066.294.186.372.358.077.172.083.346.015.516l-1.794 4.68c-.066.17-.186.3-.358.38-.174.08-.345.08-.517.02l-10.7-4.11-1.49 3.88c-.06.17-.18.3-.35.38-.17.08-.34.08-.51.02l-3.77-1.45c-.17-.06-.29-.18-.37-.36-.07-.17-.08-.34-.01-.51l5.26-13.7z"/>
    <path d="M50.86 41.824c.128-.13.285-.2.473-.203.188 0 .35.06.482.19l2.71 2.64c.133.13.2.29.2.48.005.19-.06.35-.187.48l-8.79 9.06c-.127.14-.284.2-.473.2-.19.01-.35-.05-.484-.18L33.2 43.2c-.133-.13-.2-.286-.203-.475-.002-.19.06-.35.188-.482l3.49-3.59c.128-.13.285-.2.475-.2.188 0 .348.06.482.19l8.4 8.17 4.832-4.98z"/>
    <path d="M68.042 33.624c.17-.07.34-.07.515 0 .176.07.3.19.37.36l1.376 3.253c.072.17.07.34 0 .517-.07.174-.19.298-.36.37l-12.012 5.08c-.17.073-.34.073-.51.003-.17-.072-.29-.192-.37-.36l-6.3-14.903c-.07-.17-.07-.34 0-.516.07-.174.19-.298.36-.37l11.83-5.004c.17-.072.34-.072.52-.002.17.07.3.193.37.36l1.38 3.255c.07.167.07.34 0 .515-.07.174-.19.298-.36.37l-6.91 2.926.62 1.453 6.41-2.71c.17-.07.34-.07.52 0 .18.08.3.19.37.36l1.27 3c.08.17.08.34.01.52s-.19.3-.36.37l-6.41 2.72.617 1.46 7.1-3z"/>
    <path d="M81.48 28.52c.047-.48.186-.923.41-1.33.23-.402.514-.75.862-1.032.346-.28.743-.492 1.184-.633.44-.14.904-.184 1.384-.137.484.05.924.19 1.33.414.403.227.747.513 1.032.86.284.35.493.744.634 1.185.14.445.186.904.136 1.387-.05.482-.188.925-.412 1.33-.225.404-.513.75-.86 1.032-.348.283-.743.496-1.184.635-.443.14-.906.19-1.386.14-.482-.05-.927-.18-1.33-.41-.404-.22-.747-.51-1.033-.86-.283-.34-.492-.74-.633-1.18-.138-.44-.184-.9-.134-1.38"/>
</svg>