<svg xmlns="http://www.w3.org/2000/svg" width="27" height="59" viewBox="0 0 27 59">
  <path d="M26.087 7.82617v10.2913c0 2.7183-1.41 5.2409-3.72394 6.6652l-9.31956 5.2174M26.087 27.3914v2.6087c0 2.71695-1.41 5.24087-3.72394 6.66521L13.0435 41.8827v-9.13043M26.087 39.2737v2.6087c0 2.71695-1.41 5.24087-3.72394 6.66521L13.0435 53.765v-9.13043M0 7.82617v10.2913c0 2.7183 1.41 5.2409 3.72391 6.6652l9.31959 5.2174M0 27.3914v2.6087c0 2.71695 1.41 5.24087 3.72391 6.66521l9.31959 5.21739v-9.13043M0 39.2737v2.6087c0 2.71695 1.41 5.24087 3.72391 6.66521L13.0435 53.765v-9.13043"/>
  <path d="M7.82471 20.87013c0 5.55657 5.21739 9.13047 5.21739 9.13047s5.21871-3.5752 5.21871-9.13047c0-5.55652-5.21871-9.13043-5.21871-9.13043s-5.21739 3.57391-5.21739 9.13043zM13.0435 0v11.7391m0 18.2609v28.9826M6.52173 3.91309v7.82609M19.5652 3.91309v7.82609"/>
</svg>
